<svg id="Plant" xmlns="http://www.w3.org/2000/svg" width="70.161" height="178.246" viewBox="0 0 70.161 178.246">
    <g id="Succulents" transform="translate(8.217 0)">
        <path id="Thi-Succs_" data-name="Thi-Succs!" d="M3.241.132C8.824,13.4,18.315,22.616,23.341,36.411A78.335,78.335,0,0,1,27.64,62.6c.041,4.948-.045,9.9-.068,14.848-.022,4.825-.154,9.62-.563,14.415-.412,4.82-.872,9.582-1.076,14.432-.158,3.779-.23,8.174-1.511,11.621-1.019,2.741-3.607,3.143-4.294-.182a26.573,26.573,0,0,1-.292-5.811c.054-2.437.2-4.87.268-7.306.291-9.777-.086-19.555.111-29.336.192-9.556,1.421-19.1.062-28.594-1.122-7.839-3.974-14.57-7.25-21.023C9.873,19.45,6.442,13.392,4.312,6.33A34.032,34.032,0,0,1,3,.019Q3.149-.05,3.241.132Z" transform="translate(-1.104 0)" fill="#c1dee2" fill-rule="evenodd"/>
        <path id="Thi-Succs_2" data-name="Thi-Succs!" d="M.615,41.39a10.632,10.632,0,0,1,2.471,3.118c.929,1.433,2.022,2.726,2.951,4.159,1.937,2.989,3.639,6.161,5.4,9.271A60.721,60.721,0,0,1,18.6,76.962c1.307,7.077,1.659,14.382,2.207,21.565.581,7.613,1.167,15.281,1.244,22.924a81.885,81.885,0,0,1-.192,10.458c-.256,2.116-1.211,3.92-3.364,3.9-4.574-.037-6.721-5.1-7.619-9.257A78.018,78.018,0,0,1,9.5,107.68c.253-7.544,1.562-14.975,2.129-22.491.6-7.956.261-15.771-2.474-23.262-1.382-3.786-2.986-7.48-4.426-11.241A36.339,36.339,0,0,0,2.787,45.95,45.463,45.463,0,0,1,0,41Z" transform="translate(0 -15.085)" fill="#89c5cc" fill-rule="evenodd"/>
        <path id="Thi-Succs_3" data-name="Thi-Succs!" d="M77.956,16.327,78.377,16a41.822,41.822,0,0,1-1.691,4.64,37.86,37.86,0,0,0-1.093,4.51c-.793,3.591-1.709,7.1-2.458,10.722-1.483,7.166-1.2,14.886-.23,22.836.918,7.51,2.371,15.009,3.063,22.517a103.373,103.373,0,0,1,.273,18.589c-.372,4.035-1.591,8.852-4.912,8.445-1.564-.192-2.379-2.074-2.708-4.2-.528-3.412-.638-7-.844-10.393-.459-7.574-.551-15.124-.641-22.62-.086-7.072-.322-14.284.15-21.178a64.906,64.906,0,0,1,3.92-18.177c1.074-2.914,2.1-5.9,3.3-8.673.578-1.332,1.285-2.509,1.864-3.84A8.218,8.218,0,0,1,77.956,16.327Z" transform="translate(-24.651 -5.887)" fill="#c1dee2" fill-rule="evenodd"/>
        <path id="Thi-Succs_4" data-name="Thi-Succs!" d="M3.132,76.191c.6-1.015,1.936,2.333,2.139,2.755q-.129-.314-.259-.628a27.87,27.87,0,0,1,2.982,6.364c.676,2.266,1.256,4.578,1.89,6.86,1.19,4.282,2.724,8.442,3.8,12.762a41.528,41.528,0,0,1,1.061,12.7,108.516,108.516,0,0,0-.118,13.645,39.724,39.724,0,0,0,1.33,6.253c.482,2.082.861,4.192,1.431,6.248.131-.268.147.628.147.7a4.318,4.318,0,0,1-.241,1.432,3.855,3.855,0,0,1-2.428,2.662c-2.185.624-4.213-1.363-4.918-3.462a57.431,57.431,0,0,1-2.049-9.5,44.8,44.8,0,0,1-.415-8.763c.258-5.8,1.308-11.528,1.592-17.328.309-6.314-.942-12.248-1.989-18.394a53.714,53.714,0,0,0-1.969-8.717,24.5,24.5,0,0,0-1.459-3.206C3.353,77.967,2.728,76.9,3.132,76.191Z" transform="translate(-1.104 -27.962)" fill="#c1dee2" fill-rule="evenodd"/>
        <path id="Thi-Succs_5" data-name="Thi-Succs!" d="M27.48,47.563C27.23,54.8,26.8,61.976,25.833,69.134c-.984,7.3-2.115,14.584-3.062,21.895-.922,7.117-1.888,14.351-1.759,21.568.095,5.314-.786,14.306,5.117,16.93,5.979,2.657,7.261-8.689,7.654-12.433a140.241,140.241,0,0,0,.144-21.668c-.375-7.414-1-14.79-1.776-22.176-.861-8.205-1.537-16.447-2.08-24.675-.268-4.07-.334-8.133-.26-12.2A30.492,30.492,0,0,0,28.368,25l-.214.155" transform="translate(-7.726 -9.198)" fill="#69a1ac" fill-rule="evenodd"/>
        <path id="Thi-Succs_6" data-name="Thi-Succs!" d="M75.637,94.764c-1.075,1.566-2.159,3.117-3.174,4.776a25.194,25.194,0,0,0-3.954,10.515c-1.034,8.883-.2,18.477,0,27.632.041,1.87-.2,3.685.542,5.466.669,1.614,1.918,2.844,3.11,2.838,2.551-.015,2.161-6.261,2.166-9.01.008-4.818-.533-9.686-.486-14.5A100.668,100.668,0,0,1,74.864,108.4a81.136,81.136,0,0,1,3.078-13.1c.188-.57,1.535-4.976.262-4.217" transform="translate(-25.019 -33.481)" fill="#89c5cc" fill-rule="evenodd"/>
        <path id="Thi-Succs_7" data-name="Thi-Succs!" d="M57.015,22c-1.677,0-1.667,8.36-1.717,9.434-.182,3.875-.139,7.751-.255,11.627a210.768,210.768,0,0,1-1.833,25.351c-.684,4.5-1.477,8.982-2.33,13.448s-2,8.953-2.567,13.49c-.54,4.361-.235,8.807-.161,13.189a115.459,115.459,0,0,0,.785,13.2c.142,1.078.31,2.153.488,3.226a25.564,25.564,0,0,0,.314,2.851c.4,1.36,2.136,1.8,3.3,1.592,3.156-.576,5.171-4.538,6.249-7.433a69.612,69.612,0,0,0,2.828-11.6,101.412,101.412,0,0,0,1.52-13.388A225.277,225.277,0,0,0,62.856,69.6c-.364-5.063-.784-10.1-1.427-15.134-.64-5.01-1.462-10-2-15.022-.389-3.651-.772-7.308-1.024-10.973C58.348,27.6,58.3,22,57.015,22" transform="translate(-17.66 -8.094)" fill="#69a1ac" fill-rule="evenodd"/>
        <path id="Thi-Succs_8" data-name="Thi-Succs!" d="M49.029,74.673c-.273-8.777-3.8-47.33-4.6-57.944C44.224,14.073,42.291,3.012,42.04,0c-.68.851-.622,14.1-.614,17.146.008,3.012-.366,5.973-.558,8.969-.2,3.056-4.714,42.53-5.3,45.466-1.167,5.843-1.947,11.838-2.549,17.813-.587,5.822-1.5,11.965-.714,17.818a17.887,17.887,0,0,0,.931,3.911c.5,1.337.846,2.574,1.25,3.974a8.084,8.084,0,0,0,3.626,5.163c3.7,1.908,5.683-2.411,6.689-6.172a100.643,100.643,0,0,0,3.123-18.417c.535-6.979,1.325-13.971,1.106-21" transform="translate(-11.774 0)" fill="#89c5cc" fill-rule="evenodd"/>
    </g>
    <g id="Planter" transform="translate(0 100.5)">
        <rect id="Vase" width="57.519" height="57.519" rx="2" transform="translate(6.321)" fill="#fff"/>
        <rect id="Leg" width="6.321" height="71.425" rx="2" transform="translate(0 6.321)" fill="#c5cfd6"/>
        <rect id="Leg-2" data-name="Leg" width="6.321" height="71.425" rx="2" transform="translate(31.604 6.321)" fill="#c5cfd6"/>
        <rect id="Leg-3" data-name="Leg" width="6.321" height="71.425" rx="2" transform="translate(63.84 6.321)" fill="#c5cfd6"/>
    </g>
</svg>
