<svg xmlns="http://www.w3.org/2000/svg" width="191" height="226.233" viewBox="0 0 191 226.233">
    <g id="sitting-1" transform="translate(-18 -17)">
        <g id="A-Human_Sitting" data-name="A-Human/Sitting" transform="translate(209 243.233) rotate(180)">
            <g id="Head_Front_Airy" data-name="Head/Front/Airy" transform="translate(0 157.621)">
                <g id="Head" transform="translate(76.029)">
                    <path id="Path_101" data-name="Path 101" d="M5.107,23.8C2.259,27.147.331,31.244.653,35.835,1.581,49.064,20,46.154,23.577,39.477S26.734,15.865,22.1,14.672c-1.846-.476-5.779.69-9.782,3.1L14.835,0H0Z" fill="#b28b67" fill-rule="evenodd"/>
                </g>
                <path id="hair" d="M91.151,24.277c-1.955.321-7.22.541-8.191.541-.62,0-1.293-.142-1.66.428-.3.466-.191,1.255-.28,1.8-.1.629-.252,1.25-.4,1.869a19,19,0,0,1-1.973,5.012,15.406,15.406,0,0,1-7.3,6.611A23.449,23.449,0,0,1,60.255,42.06c-3.979-.322-7.581-1.636-11.338-2.872a23.762,23.762,0,0,0-11.074-1.066c-3.773.58-6.623,2.624-9.805,4.565a18.266,18.266,0,0,1-10.832,2.988,20.86,20.86,0,0,1-9.881-3.746A16.12,16.12,0,0,1,.953,34.7c-1.394-3.379-1.393-7.089.9-10.075,3.322-4.329,9.49-5.448,14.621-5.337a27.934,27.934,0,0,1,8.685,1.591c3.737,1.314,6.966,3.542,10.462,5.35a27.225,27.225,0,0,0,5.114,2.047c1.725.487,3.424.711,4.986-.331a23.544,23.544,0,0,1,5.023-2.875,16.2,16.2,0,0,1,5.666-1.017c3.759.029,7.464,1.2,11.114,1.985,2.977.64,6.162,1.277,9.2.662,1.266-.257,3.116-.786,3.574-2.1-7.7-1.4-10.722-10.916-8.552-17.905,1.171-3.772,8.212-8.182,10.95-6.2,1.734,1.256.681,2.906,0,3.995-1.3,2.085-1.751,4.764.663,6.215,2.083,1.252,4.273-1.721,4.314-1.718.572.045,5.519,2.843,8.927,6.925,3.362-.2,3.872,2.018,3.069,3.831S93.852,23.834,91.151,24.277Z" transform="translate(0 22.894)" fill="#191847" fill-rule="evenodd"/>
            </g>
            <g id="Bottom_Sitting_Sweat-Pants" data-name="Bottom/Sitting/Sweat-Pants" transform="translate(61.812 0)">
                <path id="Skin" d="M94.184,0c-7.92,17.529-13.648,32.793-15.946,40.846C74.3,54.634,71.307,66.768,70.549,71.3c-1.8,10.805,13.884,11.434,15.958,6.064,3.139-8.128,8.618-34.832,15.2-75.167ZM2.318,55.011c7.267,2.872,32.714,11.861,44.986,14.4,3.527.731,6.945,1.41,10.159,2.023,9.552,1.824,14.5-15.409,5.3-16.733C39.853,51.407,7.371,48,4.591,47.619.7,47.084-2.249,53.206,2.318,55.011Z" transform="translate(3.794 5.773)" fill="#b28b67" fill-rule="evenodd"/>
                <path id="Leg-Back" d="M39.3,61.333,0,81.341V85.7H4.674Q61.713,71.163,62.968,67.068c.009-.029.017-.059.025-.088l.056-.076C70.584,56.54,75.1,5.943,76.579,2.154L62.139,0c-5.524,20.483-23.2,34.753-22.728,59.285A8.053,8.053,0,0,0,39.3,61.333Z" transform="translate(27.815 20.62)" fill="#1f28cf" fill-rule="evenodd"/>
                <path id="Leg-Front" d="M31.081,15.621c-3.6.72-6.908,1.362-9.742,1.859C3.034,20.691-2.3,30.489.853,51.868H34.579c5.509-1.583,34.14-13.589,49-19.975,9.832-4.227,6.733-19.464,1.165-23.429a.544.544,0,0,0-.309-.482C54.479-4.432,30.785,2.081,22.87,0L19.209,11.549Z" transform="translate(0 54.449)" fill="#2b44ff" fill-rule="evenodd"/>
                <g id="Accessories_Shoe_Flat-Sneaker" data-name="Accessories/Shoe/Flat-Sneaker" transform="matrix(0.438, -0.899, 0.899, 0.438, 0.032, 59.596)">
                    <path id="shoe" d="M1.037,9.023A13.272,13.272,0,0,1,0,4.88,31.015,31.015,0,0,1,.557,0H35.42q1.359,4.493-1.569,4.851T28.987,5.5l-16.2,7.224a.618.618,0,0,1-.816-.313l-.007-.016L10.918,9.866A11.116,11.116,0,0,0,6.513,8.6a9.976,9.976,0,0,0-3.8,1.112h0A1.236,1.236,0,0,1,1.071,9.1Q1.053,9.065,1.037,9.023Z" transform="translate(0 0)" fill="#e4e4e4" fill-rule="evenodd"/>
                </g>
                <g id="Accessories_Shoe_Flat-Sneaker-2" data-name="Accessories/Shoe/Flat-Sneaker" transform="translate(93.336 0)">
                    <path id="shoe-2" data-name="shoe" d="M1.037,9.023A13.272,13.272,0,0,1,0,4.88,31.015,31.015,0,0,1,.557,0H35.42q1.359,4.493-1.569,4.851T28.987,5.5l-16.2,7.224a.618.618,0,0,1-.816-.313l-.007-.016L10.918,9.866A11.116,11.116,0,0,0,6.513,8.6a9.976,9.976,0,0,0-3.8,1.112h0A1.236,1.236,0,0,1,1.071,9.1Q1.053,9.065,1.037,9.023Z" transform="translate(0 0)" fill="#e4e4e4" fill-rule="evenodd"/>
                </g>
            </g>
            <g id="Body_Jacket-2" data-name="Body/Jacket-2" transform="translate(6.799 67.994)">
                <path id="Skin-2" data-name="Skin" d="M121.152,55.25l22.4,9.836A53.054,53.054,0,0,0,154.916,74c1.092.348,2.959.453.967-2.456s-3.955-6.058-3.16-7.078,3.1.106,4.012-1.552q.911-1.658-11.657-3.966L128.3,46.088ZM30.6,52.54l12.666-2.513Q24.161,14.419,22.775,12.282c-2.08-3.2-.139-9.078.578-12.171-4.5-1.047-2.723,5.721-8.414,4.308C9.744,3.129,5.34-.181.5,4.283c-.6.549-1.031,2.265,1,3.144,5.058,2.192,12.531,6.3,13.742,7.891Q17.717,18.578,30.6,52.54Z" transform="translate(0 0)" fill="#b28b67" fill-rule="evenodd"/>
                <path id="Coat-Back" d="M0,61.071,5.245,62.45C17.827,52.214,24.924,25.6,32.966,22.7c7.6-2.743,17.676,1.436,29.6,6.933l4.508-8.1C56.947,8.455,34.008-3.857,23.837,1.136,7.574,9.118,1.092,42.141,0,61.071Z" transform="translate(72.371 39.092) rotate(-5)" fill="#db2721" fill-rule="evenodd"/>
                <path id="Shirt" d="M0,0H47.293c2.162,0,1.754,3.12,1.441,4.7-3.6,18.173-17.68,37.763-17.68,63.632L17.414,70.466C6.13,52.319,2.228,29.976,0,0Z" transform="translate(54.395 32.76)" fill="#dde3e9" fill-rule="evenodd"/>
                <path id="Coat-Front" d="M34.225,37.561Q19.763,11.475,9.913,0L0,1.942q9.578,59.4,55.475,87.686h5.4Q79.247,27.009,71.005,6.181H28.434A155.405,155.405,0,0,0,34.225,37.561Z" transform="translate(15.453 13.599)" fill="#ff4133" fill-rule="evenodd"/>
            </g>
        </g>
    </g>
</svg>
