<svg xmlns="http://www.w3.org/2000/svg" width="155" height="240.995" viewBox="0 0 155 240.995">
    <g id="standing-6" transform="translate(-55.081 -33.61)">
        <g id="humaaan-3" transform="translate(55.081 33.61)">
            <g id="Bottom_Standing_Sprint" data-name="Bottom/Standing/Sprint" transform="translate(0 84.899)">
                <path id="Leg" d="M60.712,0c-11.176,9.117-6.772,89.243-7.518,90.25Q52.7,90.922,0,101.6l1.528,6.2q61.66-2.953,65.245-7.529Q71.907,93.72,79.36,26.9Z" transform="matrix(0.574, -0.819, 0.819, 0.574, 18.953, 66.037)" fill="#b28b67" fill-rule="evenodd"/>
                <path id="Pant" d="M0,99.177l2.69,9.992c30.651,3.579,50.845-.745,57.944-7.506q7.1-6.76,12.619-73.174L53.305,0C26.7,20.08,42.7,86,42.02,87.506S25.184,90.175,0,99.177Z" transform="matrix(0.574, -0.819, 0.819, 0.574, 22.503, 60.005)" fill="#2f3676" fill-rule="evenodd"/>
                <g id="Accessories_Shoe_Flat-Sneaker" data-name="Accessories/Shoe/Flat-Sneaker" transform="matrix(0.94, 0.342, -0.342, 0.94, 100.261, 119.527)">
                    <path id="shoe" d="M.985,3.562A12.6,12.6,0,0,0,0,7.5a29.444,29.444,0,0,0,.529,4.632h33.1q1.29-4.265-1.489-4.6t-4.618-.614L12.135.051a.587.587,0,0,0-.775.3l-.007.015-.989,2.4a10.552,10.552,0,0,1-4.182,1.2,9.47,9.47,0,0,1-3.61-1.056h0a1.174,1.174,0,0,0-1.556.578Q1,3.522.985,3.562Z" transform="translate(0 0)" fill="#e4e4e4" fill-rule="evenodd"/>
                </g>
                <path id="Leg-2" data-name="Leg" d="M89.882,0,59.519,72.613,29.676,134h7.041L113.749,0Z" transform="translate(-28.27 16.305)" fill="#997659" fill-rule="evenodd"/>
                <g id="Accessories_Shoe_Flat-Sneaker-2" data-name="Accessories/Shoe/Flat-Sneaker" transform="translate(0 143.968)">
                    <path id="shoe-2" data-name="shoe" d="M2.068,24.5a12.6,12.6,0,0,0-.985,3.934,29.444,29.444,0,0,0,.529,4.632h33.1q1.29-4.265-1.489-4.6T28.6,27.849L13.218,20.992a.587.587,0,0,0-.775.3l-.007.015-.989,2.4a10.552,10.552,0,0,1-4.182,1.2,9.47,9.47,0,0,1-3.61-1.056h0a1.174,1.174,0,0,0-1.556.578Q2.083,24.463,2.068,24.5Z" transform="translate(-1.083 -20.941)" fill="#e4e4e4" fill-rule="evenodd"/>
                </g>
                <path id="Pant-2" data-name="Pant" d="M34.651,121.249,50.3,124.171C62.392,106.455,113.017,33.815,118.568,0H83.738C65.2,24.445,46.181,103.24,34.651,121.249Z" transform="translate(-30.55 16.305)" fill="#5c63ab" fill-rule="evenodd"/>
            </g>
            <g id="Head_Front_Wavy" data-name="Head/Front/Wavy" transform="translate(52.114 0) rotate(14)">
                <g id="Head" transform="translate(22.298 4.653)">
                    <path id="Path_102" data-name="Path 102" d="M4.848,20.059c-2.7-3.146-4.534-7-4.228-11.32C1.5-3.708,18.982-.97,22.382,5.312s3,22.216-1.4,23.339C19.231,29.1,15.5,28,11.7,25.732l2.385,16.724H0Z" transform="translate(0 0)" fill="#b28b67" fill-rule="evenodd"/>
                </g>
                <path id="hair" d="M46.009,12.785a15.87,15.87,0,0,0-.755-2.489,11.62,11.62,0,0,0-1.482-2.732A20.723,20.723,0,0,0,39.853,3.35,12.882,12.882,0,0,0,30.37.328a9.781,9.781,0,0,0-4.756,1.919c-1.269.967-2.49,2.39-4.134,2.492-1.788.111-3.428-1.453-4.862-2.42A13.127,13.127,0,0,0,11.391.127,8.733,8.733,0,0,0,3.069,3.246C.746,5.985-.941,10,.583,13.634a4.657,4.657,0,0,0,1.171,1.715c.48.432,1.213.892,1.408,1.583.207.734-.411,1.682-.65,2.344a6.845,6.845,0,0,0-.525,2.978,7.657,7.657,0,0,0,2.374,4.426,7.915,7.915,0,0,0,4.094,2.083A11.587,11.587,0,0,0,11.534,29a9.661,9.661,0,0,0,1.458-.29,1.327,1.327,0,0,1,1.16.28A9.581,9.581,0,0,0,20.285,30.5a9.917,9.917,0,0,0,5.493-1.854c1.676-1.4,1.643-3.32,1.249-5.377.418.205,1.574.332.883-.486a3.75,3.75,0,0,0-1.142-.647,4.15,4.15,0,0,1-1.142-.871c-1.282-1.462.013-4.437,1.624-4.927,2.394-.728,2.93,2.628,4.64,3.5.983.5,2.011-.183,2.747-.88a10.891,10.891,0,0,0,2.239-3.428c.478-1.036.923-2.087,1.41-3.118.228-.481,1.015-1.842.62-2.387a7.427,7.427,0,0,1,5.1,1.294,3.471,3.471,0,0,1,1.4,1.481c.07.145.222.576.412.593.355.033.223-.4.187-.6" transform="translate(0 0)" fill="#191847" fill-rule="evenodd"/>
            </g>
            <g id="Body_Hoodie" data-name="Body/Hoodie" transform="translate(18.831 38.636) rotate(1)">
                <path id="Skin" d="M91.9,0l18.717,13.677a50.518,50.518,0,0,1,12.724,5.088c.8.729,1.777,2.207-1.56,1.951s-6.858-.374-7.318.758,1.559,2.486.628,4.015q-.931,1.528-8.794-7.663L87.763,10.178ZM20.036.472,32.3.52Q20.941,37,20.036,39.234c-1.358,3.349,1.515,8.448,2.744,11.188-4,1.782-3.575-4.817-8.624-2.48-4.608,2.133-8.113,6-13.437,2.73-.654-.4-1.372-1.915.361-3.1,4.317-2.946,10.539-8.1,11.38-9.8Q14.18,34.3,20.036.472Z" transform="translate(0 55.893)" fill="#b28b67" fill-rule="evenodd"/>
                <path id="Coat-Back" d="M0,1.3,4.979,0c20.165,14.481,30.577,44.777,55,59.173l-4.936,7.309C14.734,65.057,1.544,28.145,0,1.3Z" transform="translate(54.996 3.865) rotate(5)" fill="#e87613" fill-rule="evenodd"/>
                <path id="Shirt" d="M0,66.564H44.9c2.051,0,1.665-2.947,1.368-4.435C42.841,44.962,29.481,26.457,29.481,2.021L16.531,0C5.819,17.142,2.115,38.248,0,66.564Z" transform="translate(32.764 2.051)" fill="#dde3e9" fill-rule="evenodd"/>
                <path id="Coat-Front" d="M20.977,18.9a7.4,7.4,0,0,1-4.468-3.764C11.775,6.638,13.484,1.959,18.543.421s9.57,1.63,17.628,1.63a8.15,8.15,0,0,1,1.2.082l4.054.23Q58.877,61.2,51.053,80.877H15.717a119.637,119.637,0,0,1-6.01,12.261H.078Q-1.281,49.405,20.977,18.9Z" transform="translate(12.149 0)" fill="#ff9b21" fill-rule="evenodd"/>
                <path id="Shade" d="M7.695,0q1.667,13.879,5.419,20.146H0Q3.663,11.646,7.695,0Z" transform="translate(27.866 60.731)" fill="rgba(0,0,0,0.1)" fill-rule="evenodd"/>
            </g>
        </g>
    </g>
</svg>
